<?xml version="1.0" standalone="no"?>
<!DOCTYPE svg PUBLIC "-//W3C//DTD SVG 20010904//EN"
 "http://www.w3.org/TR/2001/REC-SVG-20010904/DTD/svg10.dtd">
<svg version="1.0" xmlns="http://www.w3.org/2000/svg"
 width="500.000000pt" height="500.000000pt" viewBox="0 0 500.000000 500.000000"
 preserveAspectRatio="xMidYMid meet">

<g transform="translate(0.000000,500.000000) scale(0.100000,-0.100000)"
fill="#000000" stroke="none">
<path d="M536 3304 l-320 -315 122 -122 122 -122 72 72 73 73 -48 48 -47 47
213 213 212 212 145 0 145 0 213 -212 213 -213 -416 -410 -417 -410 73 -78 72
-79 489 489 488 488 -317 317 -318 318 -225 0 -225 -1 -319 -315z"/>
<path d="M702 2497 l-482 -482 318 -318 317 -317 225 0 225 0 318 318 317 317
-120 120 -120 120 -70 -70 c-38 -38 -70 -74 -70 -79 0 -6 19 -30 42 -53 l42
-43 -209 -210 -210 -210 -145 0 -145 0 -210 210 -210 210 415 415 415 415 -70
70 c-38 38 -74 70 -80 70 -5 0 -227 -217 -493 -483z"/>
<path d="M2007 2802 l-67 -68 0 -70 0 -71 64 -61 64 -62 216 0 c211 0 215 0
230 -22 23 -33 20 -56 -13 -89 l-29 -29 -257 0 -256 0 3 -62 3 -63 281 -3 280
-2 72 74 72 74 0 63 c-1 74 -8 90 -71 147 l-46 42 -220 0 c-200 0 -221 2 -236
18 -24 26 -21 75 4 98 19 17 43 19 273 24 l251 5 0 60 0 60 -275 3 -275 2 -68
-68z"/>
<path d="M2822 2746 l-72 -74 2 -234 3 -233 60 0 60 0 3 73 3 72 234 0 234 0
3 -72 3 -73 60 0 60 0 3 233 2 233 -73 75 -73 74 -220 0 -221 0 -71 -74z m495
-88 c32 -31 33 -35 33 -110 l0 -78 -235 0 -235 0 0 84 c0 83 0 85 33 110 31
25 35 26 202 26 l169 0 33 -32z"/>
<path d="M3565 2807 c-3 -7 -4 -145 -3 -307 l3 -295 65 0 65 0 3 308 2 307
-65 0 c-44 0 -67 -4 -70 -13z"/>
<path d="M3785 2807 c-3 -7 -4 -145 -3 -307 l3 -295 68 -3 67 -3 0 116 0 115
191 0 191 0 31 -36 c29 -31 33 -44 37 -112 l5 -77 68 -3 67 -3 0 113 0 112
-49 51 -50 50 50 80 c46 75 49 83 49 147 l0 69 -67 -3 -68 -3 -5 -50 c-4 -36
-18 -70 -50 -123 l-45 -72 -175 2 -175 3 -3 123 -3 122 -65 0 c-43 0 -66 -4
-69 -13z"/>
<path d="M4600 2510 l0 -310 65 0 c59 0 65 2 70 23 3 12 4 150 3 307 l-3 285
-67 3 -68 3 0 -311z"/>
</g>
</svg>
